<?xml version="1.0" standalone="no"?>
<!DOCTYPE svg PUBLIC "-//W3C//DTD SVG 20010904//EN"
 "http://www.w3.org/TR/2001/REC-SVG-20010904/DTD/svg10.dtd">
<svg version="1.0" xmlns="http://www.w3.org/2000/svg"
 width="700.000000pt" height="700.000000pt" viewBox="0 0 700.000000 700.000000"
 preserveAspectRatio="xMidYMid meet">
<metadata>
Created by potrace 1.14, written by Peter Selinger 2001-2017
</metadata>
<g transform="translate(0.000000,700.000000) scale(0.100000,-0.100000)"
fill="#000000" stroke="none">
<path d="M1711 6763 c-207 -43 -358 -187 -434 -413 -66 -197 -45 -456 53 -636
l38 -72 -67 33 c-134 67 -254 94 -410 93 -282 -2 -517 -129 -615 -333 -47 -97
-60 -174 -53 -298 17 -265 178 -585 413 -821 326 -326 849 -536 1499 -601 33
-3 79 -8 101 -10 131 -13 317 -18 620 -17 l342 2 -2 -73 -1 -72 -310 0 c-273
0 -467 -7 -615 -21 -127 -11 -228 -25 -435 -60 -156 -26 -396 -95 -565 -161
-316 -125 -573 -306 -750 -528 -130 -163 -256 -426 -289 -605 -16 -88 -7 -245
19 -320 85 -249 343 -404 670 -403 41 1 93 4 115 8 22 4 47 8 55 9 56 8 164
48 225 83 52 30 60 29 38 -5 -29 -41 -70 -139 -87 -207 -54 -216 -32 -424 65
-605 60 -114 209 -235 324 -265 17 -5 37 -10 45 -12 35 -10 200 -10 263 -2
144 21 365 111 525 215 267 174 459 403 609 729 69 151 152 414 178 565 3 19
10 51 15 70 11 42 48 319 55 410 14 194 19 344 18 607 l-2 293 27 -14 c53 -27
155 -27 225 -1 14 6 15 -19 14 -262 -1 -237 7 -491 18 -578 3 -16 7 -57 10
-90 6 -56 9 -88 19 -160 4 -27 28 -164 42 -240 11 -62 64 -263 92 -350 168
-518 461 -877 882 -1078 234 -112 451 -149 620 -106 108 27 174 65 254 144
104 103 174 257 191 415 19 173 -8 332 -79 473 l-42 83 66 -32 c138 -69 254
-94 419 -90 121 3 144 6 221 26 19 5 38 10 42 10 4 0 45 19 90 42 148 75 253
202 293 355 83 311 -146 813 -509 1116 -292 243 -755 423 -1246 483 -19 2 -48
6 -65 8 -62 9 -219 23 -345 31 -109 7 -461 9 -660 5 l-135 -3 -1 74 -1 74 331
0 c296 0 515 7 601 20 17 3 55 7 85 10 249 23 573 91 797 168 306 106 561 256
741 437 125 126 224 264 299 420 58 120 77 172 110 305 3 11 7 68 8 128 4 116
-11 190 -55 277 -23 47 -83 127 -110 146 -8 7 -28 24 -45 39 -41 36 -177 100
-250 119 -218 54 -440 30 -622 -68 -35 -19 -63 -32 -63 -29 0 3 9 17 20 33 54
76 109 272 112 399 8 354 -174 623 -464 686 -330 71 -836 -162 -1137 -522
-140 -167 -271 -414 -350 -661 -28 -86 -53 -168 -56 -182 -2 -14 -9 -43 -14
-65 -5 -22 -12 -52 -15 -67 -3 -16 -8 -38 -11 -50 -11 -56 -44 -279 -50 -338
-3 -36 -8 -83 -10 -105 -11 -114 -18 -360 -18 -612 l1 -281 -35 14 c-58 25
-134 25 -210 0 l-21 -7 1 263 c1 242 -7 497 -17 558 -3 14 -7 59 -11 101 -3
42 -7 87 -10 100 -2 13 -6 45 -9 70 -4 25 -9 59 -12 75 -2 16 -9 56 -15 89
-14 81 -73 328 -94 390 -93 281 -186 468 -325 653 -181 242 -427 422 -717 526
-162 57 -327 76 -452 49z"/>
<path d="M3499 2939 c0 -2 -2 -11 -4 -19 -1 -8 -6 -46 -9 -83 -4 -37 -9 -77
-11 -87 -2 -10 -6 -50 -10 -87 -3 -37 -7 -81 -10 -98 -2 -16 -7 -57 -11 -90
-3 -33 -7 -71 -9 -85 -2 -14 -7 -59 -10 -100 -4 -41 -9 -83 -11 -93 -2 -10 -6
-48 -9 -85 -3 -37 -8 -78 -10 -92 -3 -14 -7 -50 -10 -80 -3 -30 -7 -71 -10
-90 -3 -19 -7 -65 -10 -102 -3 -37 -7 -75 -9 -85 -2 -10 -7 -47 -11 -83 -3
-36 -8 -81 -10 -100 -7 -59 -14 -122 -20 -180 -6 -61 -23 -205 -30 -260 -3
-19 -7 -66 -10 -103 -4 -37 -8 -76 -10 -85 -1 -9 -6 -51 -10 -92 -3 -41 -8
-82 -10 -90 -8 -31 -19 -166 -17 -208 4 -91 84 -194 175 -224 54 -19 134 -22
184 -9 105 28 189 139 187 246 0 14 -15 165 -19 190 -3 19 -10 81 -21 185 -2
25 -7 63 -9 85 -3 22 -7 63 -10 90 -3 28 -7 66 -10 85 -2 19 -7 60 -10 90 -10
100 -16 155 -20 180 -2 14 -6 59 -10 100 -3 41 -8 82 -10 90 -2 8 -6 47 -10
85 -3 39 -8 81 -10 95 -2 14 -7 52 -10 85 -3 33 -13 119 -21 190 -8 72 -16
148 -18 170 -3 22 -7 69 -11 105 -4 36 -8 76 -10 90 -2 14 -6 50 -10 80 -5 54
-21 194 -30 275 -3 22 -8 74 -11 115 -5 63 -11 97 -15 79z"/>
</g>
</svg>
